# xmcd
#
# Track frame offsets:
#	150
#	16313
#	34030
#	52285
#	79036
#	100655
#	110679
#	137413
#	154731
#	178421
#	196545
#	216156
#	233003
#
# Disc length: 3355 seconds
#
# Revision: 4
# Processed by: cddbd v1.5.1PL0 Copyright (c) Steve Scherf et al.
# Submitted via: EasyCDDAExtractor 6.2.0.3
#
DISCID=a70d190d
DTITLE=Grupa Furmana - W drodze
DYEAR=1999
DGENRE=Country
TTITLE0=Piosenka uliczna
TTITLE1=ETZ
TTITLE2=Pociag
TTITLE3=Midnight specjal
TTITLE4=Autostopowicz
TTITLE5=Minuta dla farmera
TTITLE6=6 and 4
TTITLE7=Klopoty
TTITLE8=Winston
TTITLE9=Zyc zyciem drugich
TTITLE10=Blue moon of Kentucky
TTITLE11=Wyscig
TTITLE12=Wiosna
EXTD=
EXTT0=
EXTT1=
EXTT2=
EXTT3=
EXTT4=
EXTT5=
EXTT6=
EXTT7=
EXTT8=
EXTT9=
EXTT10=
EXTT11=
EXTT12=
PLAYORDER=
